Coordinates
version=1
nRows=34
nColumns=19
inDegrees=yes

Units are S.I. units (second, meters, Newtons, ...)
If the header above contains a line with 'inDegrees', this indicates whether rotational values are in degrees (yes) or radians (no).

endheader
time	pelvis_tilt	pelvis_list	pelvis_rotation	pelvis_tx	pelvis_ty	pelvis_tz	hip_flexion_r	hip_adduction_r	hip_rotation_r	knee_angle_r	knee_angle_r_beta	ankle_angle_r	hip_flexion_l	hip_adduction_l	hip_rotation_l	knee_angle_l	knee_angle_l_beta	ankle_angle_l
     16.83333333	     -3.65609403	      5.33831858	      8.18025284	      2.06274955	      0.97445068	      0.99773157	    -22.09644735	    -11.59178776	    -30.97487190	     52.62505760	      0.91848052	    -17.27272365	     29.75140589	      6.82620896	    -18.00452083	     21.94442694	      0.38300250	     -9.30907011
     16.84000000	     -3.04100220	      6.38828119	      8.33715470	      2.06285203	      0.97126305	      0.99609143	    -21.66783119	    -13.41503278	    -30.66218750	     57.11156377	      0.99678483	    -16.65966812	     28.22578158	      7.86711670	    -18.82257683	     23.08931109	      0.40298450	     -7.83522424
     16.84666667	     -2.51533064	      7.53154739	      8.38940796	      2.06264138	      0.96765859	      0.99464784	    -20.92595619	    -15.37112567	    -30.06812531	     61.72496627	      1.07730389	    -15.91778280	     26.76425830	      8.97442297	    -19.55197156	     24.36664306	      0.42527815	     -5.96911071
     16.85333333	     -2.06595067	      8.57947717	      8.59957602	      2.06200875	      0.96357857	      0.99325656	    -19.97590834	    -17.15183284	    -29.45755697	     66.32863986	      1.15765315	    -15.05353654	     25.48201673	     10.04050849	    -19.86505062	     25.96320016	      0.45314333	     -3.65610974
     16.86000000	     -1.81019288	      9.64821857	      8.72568258	      2.06091823	      0.95917944	      0.99210913	    -18.54227641	    -18.95287023	    -28.47469097	     70.99525806	      1.23910101	    -14.06055211	     24.40421877	     11.12441469	    -20.06884943	     27.57455425	      0.48126676	     -1.09045299
     16.86666667	     -1.49607726	     10.62449075	      9.03617929	      2.05934316	      0.95466626	      0.99101610	    -17.06990639	    -20.52668341	    -27.51763280	     75.54690943	      1.31854231	    -12.94964042	     23.35516688	     12.15679377	    -19.86702321	     29.40566544	      0.51322568	      1.79424072
     16.87333333	     -1.69970542	     11.54277269	      9.16402363	      2.05736070	      0.94973379	      0.99027178	    -14.58460985	    -22.05261073	    -25.83547242	     80.15612174	      1.39898824	    -11.82589288	     22.90152168	     13.10704268	    -19.75403325	     31.18829067	      0.54433836	      4.56536774
     16.88000000	     -1.42307380	     12.45924426	      9.57044094	      2.05492927	      0.94538529	      0.98955518	    -12.69146112	    -23.30737791	    -24.46653543	     84.44331817	      1.47381393	    -10.61605303	     21.96214481	     14.08555873	    -19.13309381	     33.10091570	      0.57771996	      7.54499769
     16.88666667	     -2.12087077	     13.04341127	      9.68390069	      2.05208484	      0.94035671	      0.98923282	     -9.02642567	    -24.33104141	    -22.07379305	     88.83037237	      1.55038247	     -9.51624868	     22.17680904	     14.69128573	    -18.83240538	     34.93795199	      0.60978230	     10.14287382
     16.89333333	     -2.13176731	     13.75797937	     10.00320566	      2.04906995	      0.93629651	      0.98899205	     -6.30313539	    -25.22532439	    -20.11974078	     92.76591764	      1.61907070	     -8.27897729	     21.57760851	     15.41853150	    -18.13101174	     36.74251218	      0.64127781	     12.85457375
     16.90000000	     -2.89167788	     14.10289307	     10.04825383	      2.04565736	      0.93202330	      0.98917903	     -2.06760949	    -25.66264429	    -17.23153699	     96.63935512	      1.68667493	     -7.40375962	     21.84768621	     15.73708417	    -17.66785078	     38.38069091	      0.66986943	     14.92519154
     16.90666667	     -3.36165775	     14.30511320	     10.08497048	      2.04220233	      0.92855550	      0.98959018	      1.92156453	    -25.69894990	    -14.39212745	    100.07774054	      1.74668608	     -6.59072163	     21.74396561	     15.87181857	    -17.02269524	     39.89663145	      0.69632758	     16.93310137
     16.91333333	     -3.86574921	     14.35139991	     10.01408371	      2.03868493	      0.92552607	      0.99028425	      6.11726039	    -25.41302445	    -11.45446591	    103.16944971	      1.80064658	     -5.90834266	     21.61169993	     15.80686184	    -16.39789318	     41.22094509	      0.71944121	     18.66893386
     16.92000000	     -4.26368218	     14.34482909	      9.70172345	      2.03532853	      0.92315115	      0.99134087	     10.32898574	    -24.88244900	     -8.39042527	    105.85610764	      1.84753761	     -5.31229390	     21.23666102	     15.58098761	    -15.98851777	     42.24422717	      0.73730085	     20.09900338
     16.92666667	     -4.53931093	     14.18305394	      9.19299316	      2.03206452	      0.92142425	      0.99276279	     14.47178695	    -23.96022689	     -5.35363948	    108.10737913	      1.88682971	     -4.82949446	     20.62429905	     15.11062134	    -15.70255062	     43.02162362	      0.75086898	     21.27679258
     16.93333333	     -4.96000804	     13.83585585	      8.63483201	      2.02897885	      0.92007006	      0.99428011	     18.74024690	    -22.70166143	     -2.49756861	    109.92031199	      1.91847136	     -4.51793677	     20.02927476	     14.47158667	    -15.42720523	     43.52703348	      0.75969005	     22.22464228
     16.94000000	     -4.89313203	     13.41041719	      7.78885928	      2.02626669	      0.91982449	      0.99615699	     22.34809680	    -21.14585166	      0.12035436	    111.18936804	      1.94062057	     -4.22634369	     18.72980642	     13.61888945	    -15.40149231	     43.70492445	      0.76279483	     23.02199722
     16.94666667	     -5.29050068	     12.85616281	      6.91847336	      2.02361544	      0.91950677	      0.99803422	     26.39177490	    -19.34653690	      2.58124662	    112.07513291	      1.95608008	     -4.07621236	     17.81252429	     12.71258709	    -15.47780713	     43.62928943	      0.76147475	     23.52982609
     16.95333333	     -5.28393772	     12.16911915	      5.89508744	      2.02136784	      0.92024179	      1.00003804	     29.71951260	    -17.31016307	      4.58792315	    112.40077240	      1.96176356	     -3.91606165	     16.27208759	     11.63754086	    -15.67959907	     43.23399069	      0.75457549	     23.87908588
     16.96000000	     -5.33271999	     11.40245729	      4.82522436	      2.01937315	      0.92137418	      1.00193933	     32.87392506	    -15.18275090	      6.25138230	    112.27838400	      1.95962748	     -3.78437291	     14.64051752	     10.54635574	    -15.96984580	     42.56560991	      0.74291004	     24.00990912
     16.96666667	     -5.50848503	     10.55910508	      3.76207478	      2.01769768	      0.92283558	      1.00372041	     35.89973463	    -13.01660742	      7.53707134	    111.71507779	      1.94979593	     -3.58395612	     12.99648773	      9.45324264	    -16.34165676	     41.64340327	      0.72681450	     23.89038449
     16.97333333	     -5.78945133	      9.75698208	      3.39538213	      2.01645884	      0.92486224	      1.00430864	     38.53763415	    -11.60028084	      7.83538517	    110.67244139	      1.93159849	     -3.09945628	     11.25336115	      8.75495665	    -15.82021278	     40.36054071	      0.70442432	     23.52584719
     16.98000000	     -5.94898378	      8.66212773	      1.70678055	      2.01534705	      0.92708167	      1.00670769	     41.17427009	     -8.78056711	      8.93197671	    109.28161588	      1.90732401	     -2.97646285	      9.41285233	      7.32298112	    -17.13074191	     39.07297326	      0.68195203	     22.77200579
     16.98666667	     -6.28128021	      7.66484368	      0.77881645	      2.01479601	      0.92972035	      1.00785132	     43.48810684	     -6.88150874	      9.07088184	    107.46052605	      1.87554000	     -2.54586702	      7.56714370	      6.33887049	    -17.52803201	     37.45118952	      0.65364657	     21.66466871
     16.99333333	     -6.69081137	      6.63060202	     -0.04697468	      2.01469371	      0.93270823	      1.00863558	     45.58913357	     -5.18748124	      8.84411585	    105.25414297	      1.83703135	     -2.06509985	      5.71657214	      5.41088471	    -17.86886146	     35.63350987	      0.62192207	     20.09408465
     17.00000000	     -6.99693447	      5.58479294	     -0.83433692	      2.01511526	      0.93614957	      1.00926274	     47.28442559	     -3.70377277	      8.31137040	    102.69314017	      1.79233342	     -1.40286968	      3.65170097	      4.55072846	    -18.18688577	     33.57448011	      0.58598522	     18.18414972
     17.00666667	     -7.34000643	      4.54060354	     -1.42753142	      2.01602930	      0.93987306	      1.00948664	     48.73059418	     -2.57958333	      7.39855556	     99.80326417	      1.74189556	     -0.74095535	      1.58939630	      3.75337129	    -18.38598742	     31.37705307	      0.54763289	     15.73720301
     17.01333333	     -7.73078645	      3.49955496	     -1.93165820	      2.01742704	      0.94373505	      1.00949804	     49.96975728	     -1.71516346	      6.20007618	     96.62045805	      1.68634512	     -0.08544095	     -0.43896588	      2.98882028	    -18.57322648	     29.07694411	      0.50748841	     12.87564749
     17.02000000	     -8.14521682	      2.46184304	     -2.29080384	      2.01924679	      0.94773267	      1.00924245	     50.97599139	     -1.15044819	      4.68596039	     93.16195472	      1.62598285	      0.44725018	     -2.41447323	      2.24217045	    -18.67745117	     26.73948265	      0.46669201	      9.60373304
     17.02666667	     -8.37526027	      1.42826641	     -2.48969422	      2.02151458	      0.95199753	      1.00875063	     51.50551600	     -0.87882434	      2.86907921	     89.46096597	      1.56138841	      1.06504332	     -4.55532990	      1.50161252	    -18.69853305	     24.37551988	      0.42543308	      6.00683024
     17.03333333	     -8.59470813	      0.39756491	     -2.59581865	      2.02404802	      0.95624403	      1.00815434	     51.79467488	     -0.80332294	      0.79471180	     85.54222924	      1.49299355	      1.49916206	     -6.60643307	      0.72653813	    -18.72876378	     22.12961545	      0.38623465	      2.23762919
     17.04000000	     -8.71398639	     -0.61068629	     -2.58313437	      2.02682755	      0.96047595	      1.00748479	     51.74313755	     -0.92520720	     -1.53614025	     81.43995173	      1.42139530	      1.80567685	     -8.64156504	     -0.07112923	    -18.73722513	     20.05856989	      0.35008809	     -1.55885391
     17.04666667	     -8.76438661	     -1.58479695	     -2.50081301	      2.02972108	      0.96460939	      1.00685998	     51.40699467	     -1.13287368	     -4.03397194	     77.17395279	      1.34693957	      1.92270916	    -10.58534713	     -0.89400691	    -18.75327324	     18.26562099	      0.31879523	     -5.24271955
     17.05333333	     -8.67727547	     -2.48718423	     -2.33728818	      2.03257671	      0.96863812	      1.00638458	     50.74507994	     -1.38747426	     -6.62236399	     72.78634605	      1.27036139	      1.89152489	    -12.46702233	     -1.72076568	    -18.74208850	     16.85583522	      0.29418982	     -8.61398468
